#!OML:ASF F:\VICON\USERDATA\INSTALL\rory3\rory3.ASF
:FULLY-SPECIFIED
:DEGREES
307
root 3.1259 17.4323 14.4835 -7.16678 -17.8708 10.4408
lowerback 31.2603 0.217447 -3.44525
upperback 6.56833 -0.152044 7.24053
thorax -9.1211 -0.0581596 9.71685
lowerneck -11.7625 2.63187 0.829563
upperneck 4.38454 3.86071 -6.11854
head 3.71165 1.64571 -1.93271
rclavicle 1.59028e-014 3.18055e-014
rhumerus -22.5225 -36.7563 -42.4934
rradius 113.048
rwrist -29.735
rhand 11.0547 -1.20192
rfingers 7.12502
rthumb 36.126 -27.4874
lclavicle 1.59028e-014 3.18055e-014
lhumerus -43.8741 5.56689 75.4059
lradius 50.4736
lwrist 12.6687
lhand -8.94621 51.1494
lfingers 7.12502
lthumb 16.9982 80.4256
rfemur -34.7375 -5.15124 20.1343
rtibia 32.8754
rfoot -3.79548 -3.66183
rtoes -13.7404
lfemur -2.62584 -1.28793 -36.4216
ltibia 38.0948
lfoot -13.8061 -9.71803
ltoes -0.0770925
308
root 3.14399 17.4138 14.2801 -7.65577 -17.5416 11.3384
lowerback 31.5322 0.341933 -4.1513
upperback 6.39396 -0.255218 6.82408
thorax -9.39012 -0.0751299 9.69875
lowerneck -11.7359 2.63785 0.621644
upperneck 4.52417 3.89557 -5.96525
head 3.74591 1.66356 -1.84078
rclavicle -3.18055e-014 -4.77083e-014
rhumerus -20.0352 -35.2105 -43.7702
rradius 112.273
rwrist -28.4688
rhand 11.778 -0.928533
rfingers 7.12502
rthumb 36.8107 -27.0417
lclavicle -3.18055e-014 -4.77083e-014
lhumerus -43.5814 5.55361 75.7014
lradius 51.3758
lwrist 12.5822
lhand -9.53241 51.3611
lfingers 7.12502
lthumb 16.4339 80.685
rfemur -35.4803 -6.24501 19.0474
rtibia 34.984
rfoot -4.06401 -3.50594
rtoes -17.1246
lfemur -2.83031 -1.59476 -37.2177
ltibia 37.7584
lfoot -14.0581 -9.84263
ltoes 1.28603
309
root 3.14857 17.416 14.0785 -8.05627 -18.1244 10.8194
lowerback 31.1309 0.595488 -3.5609
upperback 7.06154 0.196018 6.59407
thorax -8.55928 0.0685098 8.91944
lowerneck -12.2308 2.39865 0.472113
upperneck 4.41907 3.57862 -5.73431
head 3.78289 1.50805 -1.75479
rclavicle 1.27222e-014 -2.54444e-014
rhumerus -16.9906 -34.5836 -45.6409
rradius 111.31
rwrist -26.8135
rhand 12.2157 -0.602883
rfingers 7.12502
rthumb 37.2247 -26.6089
lclavicle 1.27222e-014 -2.54444e-014
lhumerus -42.1687 5.25664 75.9786
lradius 52.1939
lwrist 12.4869
lhand -10.2713 51.5082
lfingers 7.12502
lthumb 15.7224 80.8896
rfemur -35.6313 -5.74017 19.3173
rtibia 37.3061
rfoot -5.61433 -4.08241
rtoes -15.8555
lfemur -2.88778 -1.42274 -36.4417
ltibia 37.5781
lfoot -14.6613 -9.35985
ltoes -2.78984
310
root 3.15619 17.4167 13.882 -8.56309 -18.3418 10.8624
lowerback 31.5796 0.766799 -3.65091
upperback 6.93801 0.364725 6.40504
thorax -8.89882 0.163272 8.70854
lowerneck -12.4637 2.2901 0.580028
upperneck 5.59558 3.52278 -6.32133
head 3.82432 1.41319 -1.7896
rclavicle -2.22639e-014 -2.8625e-014
rhumerus -14.5723 -32.8932 -46.8618
rradius 110.367
rwrist -25.2241
rhand 13.103 -0.580135
rfingers 7.12502
rthumb 38.0631 -26.3622
lclavicle -2.22639e-014 -2.8625e-014
lhumerus -42.2117 5.38647 76.2047
lradius 53.2208
lwrist 12.1322
lhand -10.1998 51.4747
lfingers 7.12502
lthumb 15.7912 80.8506
rfemur -35.9288 -5.76291 18.9423
rtibia 39.8669
rfoot -6.9268 -4.48393
rtoes -15.9654
lfemur -2.87148 -1.54696 -36.3323
ltibia 37.3271
lfoot -15.1194 -8.94254
ltoes -5.66173
311
root 3.16494 17.4203 13.6657 -8.73728 -18.4755 10.6886
lowerback 32.0169 0.953132 -3.47797
upperback 6.74987 0.648384 6.28457
thorax -9.32248 0.312324 8.38402
lowerneck -12.9305 2.17304 0.725762
upperneck 6.36931 3.42214 -6.64428
head 4.14296 1.32163 -1.91494
rclavicle -1.59028e-015 -3.49861e-014
rhumerus -12.3691 -31.3789 -47.9519
rradius 109.39
rwrist -23.2879
rhand 13.5789 -0.276645
rfingers 7.12502
rthumb 38.5123 -25.9346
lclavicle -1.59028e-015 -3.49861e-014
lhumerus -41.9343 5.20558 76.6223
lradius 53.9553
lwrist 11.6744
lhand -10.4053 51.0677
lfingers 7.12502
lthumb 15.5934 80.4591
rfemur -36.41 -5.66323 18.7458
rtibia 42.2957
rfoot -7.63085 -4.76537
rtoes -16.3422
lfemur -3.4062 -1.73897 -35.9719
ltibia 37.3567
lfoot -15.4123 -8.42909
ltoes -8.68996
312
root 3.17253 17.4268 13.4816 -9.37673 -18.4538 11.32
lowerback 32.1519 1.18596 -3.77822
upperback 6.78942 0.799259 5.8897
thorax -9.34021 0.3875 8.05936
lowerneck -13.0852 1.98501 0.625196
upperneck 6.71216 3.20437 -6.59866
head 4.26281 1.203 -1.89989
rclavicle 1.59028e-014 2.54444e-014
rhumerus -10.2542 -29.8673 -49.0364
rradius 108.372
rwrist -21.0017
rhand 13.7999 0.077869
rfingers 7.12502
rthumb 38.7208 -25.5216
lclavicle 1.59028e-014 2.54444e-014
lhumerus -41.5262 4.91425 77.0748
lradius 54.6186
lwrist 11.2326
lhand -10.3694 50.6196
lfingers 7.12502
lthumb 15.6279 80.0084
rfemur -36.5928 -6.07016 17.6399
rtibia 44.9045
rfoot -8.0529 -4.05914
rtoes -16.3964
lfemur -3.44407 -1.92421 -36.5601
ltibia 37.2544
lfoot -15.6751 -7.53495
ltoes -11.2134
313
root 3.17895 17.4407 13.2599 -9.31329 -18.7186 10.9087
lowerback 32.4615 1.33333 -3.32413
upperback 6.66949 1.12005 5.75518
thorax -9.63111 0.53881 7.54416
lowerneck -13.1616 1.80786 0.528364
upperneck 7.03589 3.00523 -6.6184
head 4.3666 1.09163 -1.90523
rclavicle -9.38264e-014 4.45278e-014
rhumerus -8.24219 -28.0976 -50.1448
rradius 107.44
rwrist -18.6356
rhand 14.6107 0.379346
rfingers 7.12502
rthumb 39.4851 -25
lclavicle -9.38264e-014 4.45278e-014
lhumerus -41.1247 4.74071 77.4779
lradius 55.1974
lwrist 10.8176
lhand -10.416 50.1986
lfingers 7.12502
lthumb 15.5831 79.5908
rfemur -37.1445 -5.73904 17.6483
rtibia 47.4517
rfoot -8.56039 -3.70546
rtoes -15.4487
lfemur -4.14374 -2.28487 -35.9719
ltibia 37.1535
lfoot -15.4776 -6.7481
ltoes -11.333
314
root 3.18457 17.4666 13.0582 -9.26542 -19.0052 10.5228
lowerback 32.6715 1.46049 -2.90002
upperback 6.59936 1.40636 5.62292
thorax -9.81622 0.667966 7.05883
lowerneck -13.8042 1.88887 0.74577
upperneck 7.31694 3.10216 -6.63676
head 4.56505 1.12565 -1.93554
rclavicle 2.70347e-014 2.22639e-014
rhumerus -6.48764 -25.9894 -50.9463
rradius 106.585
rwrist -16.1855
rhand 15.1427 0.428229
rfingers 7.12502
rthumb 39.9859 -24.8021
lclavicle 2.70347e-014 2.22639e-014
lhumerus -40.8108 4.59746 77.8664
lradius 55.8638
lwrist 10.4377
lhand -10.0659 49.8991
lfingers 7.12502
lthumb 15.9202 79.2648
rfemur -37.4978 -5.40922 17.5371
rtibia 49.9645
rfoot -9.2734 -3.21578
rtoes -12.2513
lfemur -4.70135 -2.72093 -35.4612
ltibia 37.0136
lfoot -15.3381 -5.98604
ltoes -10.8604
315
root 3.18813 17.4936 12.9007 -9.92403 -19.0708 10.8963
lowerback 32.6768 1.57378 -2.99197
upperback 6.7518 1.47555 5.31888
thorax -9.64172 0.692199 6.749
lowerneck -13.5155 1.8945 0.559119
upperneck 7.15433 3.11393 -6.47819
head 4.46239 1.14539 -1.8565
rclavicle 2.38542e-015 -2.54444e-014
rhumerus -4.8924 -23.4924 -51.4798
rradius 105.708
rwrist -13.5827
rhand 15.4246 0.743676
rfingers 7.12502
rthumb 40.2511 -24.4061
lclavicle 2.38542e-015 -2.54444e-014
lhumerus -40.6112 4.60944 78.3351
lradius 56.5509
lwrist 10.2009
lhand -10.2354 49.4965
lfingers 7.12502
lthumb 15.7569 78.8751
rfemur -37.079 -5.52434 16.4805
rtibia 52.4235
rfoot -10.0011 -2.44437
rtoes -9.38741
lfemur -4.4649 -3.20104 -35.899
ltibia 36.8447
lfoot -15.3605 -5.02525
ltoes -10.8291
316
root 3.18853 17.5138 12.6998 -9.61543 -19.1634 10.4192
lowerback 32.444 1.58054 -2.45915
upperback 6.70205 1.66465 5.30153
thorax -9.61351 0.771595 6.36878
lowerneck -13.4846 1.81481 0.510672
upperneck 7.0885 3.0345 -6.70393
head 4.43816 1.09285 -1.92513
rclavicle 6.36111e-015 -7.31528e-014
rhumerus -3.18733 -20.8894 -52.0449
rradius 104.606
rwrist -10.7502
rhand 15.6242 1.31182
rfingers 7.12502
rthumb 40.4389 -23.7803
lclavicle 6.36111e-015 -7.31528e-014
lhumerus -40.364 4.46309 78.9986
lradius 57.1453
lwrist 10.2199
lhand -10.6665 49.0652
lfingers 7.12502
lthumb 15.3417 78.4761
rfemur -37.4118 -5.34667 16.5075
rtibia 54.7406
rfoot -10.2265 -2.53837
rtoes -13.1153
lfemur -5.24632 -3.87982 -35.3108
ltibia 36.7258
lfoot -15.0669 -3.84406
ltoes -11.6616
317
root 3.18924 17.5357 12.5086 -9.53859 -19.2478 10.2243
lowerback 32.3713 1.65664 -2.12769
upperback 6.59224 1.86679 5.20336
thorax -9.71409 0.864341 6.00668
lowerneck -13.4904 1.65938 0.35086
upperneck 7.27 2.86225 -6.6764
head 4.48619 1.00047 -1.90444
rclavicle 1.03368e-014 -1.27222e-014
rhumerus -2.03062 -17.9835 -52.2936
rradius 103.622
rwrist -8.00588
rhand 15.4259 1.61966
rfingers 7.12502
rthumb 40.2524 -23.5297
lclavicle 1.03368e-014 -1.27222e-014
lhumerus -40.3482 4.317 79.6064
lradius 57.7703
lwrist 9.93591
lhand -10.8053 48.6773
lfingers 7.12502
lthumb 15.208 78.0984
rfemur -37.5126 -5.27917 16.2069
rtibia 57.023
rfoot -10.2282 -2.58284
rtoes -16.0407
lfemur -5.80573 -4.47318 -35.0151
ltibia 36.5432
lfoot -14.9763 -2.82265
ltoes -9.71502
